<svg xmlns="http://www.w3.org/2000/svg" width="53.281" height="64" viewBox="0 0 53.281 64">
  <g id="automobile-with-wrench" transform="translate(-42.8 511.87)">
    <path id="Path_1" data-name="Path 1" d="M153.351-511.748c-3.927.377-6.994,1.846-8.777,4.219-1.995,2.649-2.768,6.026-2.78,12.279a19.112,19.112,0,0,0,.661,6.277,17.211,17.211,0,0,0,7.032,9.793c2.693,1.8,5.411,2.637,7.506,2.323a15.705,15.705,0,0,0,8.8-5.122,17.362,17.362,0,0,0,4.276-9.065,46.646,46.646,0,0,0,0-8.977c-.573-5.135-2.219-8.111-5.523-10.069C162.166-511.5,157.677-512.162,153.351-511.748Zm5.885,5.926a8.142,8.142,0,0,1,1.359.377,12.317,12.317,0,0,1-.935,2.511,4.426,4.426,0,0,1-1.359-.163,14.053,14.053,0,0,0-2.269-.251,14.053,14.053,0,0,0-2.269.251,4.426,4.426,0,0,1-1.359.163,12.068,12.068,0,0,1-.561-1.281c-.362-.9-.424-1.193-.3-1.268a27.1,27.1,0,0,1,3.055-.678A18.629,18.629,0,0,1,159.236-505.822Zm-.112,6.617a12.661,12.661,0,0,1,5.436,2.975c1.022.854,1.322,1.042,1.671,1.042.549,0,1.047-.364,1.6-1.168l.449-.653-.062,2.448a16.59,16.59,0,0,1-1.521,7.483,15.334,15.334,0,0,1-7.219,7.282,9.967,9.967,0,0,1-3.441.929c-2.157,0-5.4-1.67-7.68-3.955a14.1,14.1,0,0,1-2.98-4.256,16.589,16.589,0,0,1-1.521-7.483l-.062-2.448.449.653c.549.8,1.047,1.168,1.6,1.168.349,0,.648-.188,1.671-1.042a12.43,12.43,0,0,1,6.633-3.227A17.646,17.646,0,0,1,159.124-499.205Z" transform="translate(-86.564 0)" fill="#e74c3c"/>
    <path id="Path_2" data-name="Path 2" d="M58.21-243.669c-6.917,3.767-9.844,5.474-10.694,6.227-1.751,1.544-3.665,6.265-4.515,11.149l-.2,1.205.338.678a11.964,11.964,0,0,0,3.19,3.239c.45.3,1.426.854,2.164,1.23l1.363.7.325-.314a3.5,3.5,0,0,1,.625-.452c.275-.151.275-.163-.313-.552a2.838,2.838,0,0,1-.776-3.867,9.7,9.7,0,0,1,2.9-2.988,8.393,8.393,0,0,1,8.28-.226,7.509,7.509,0,0,1,2.1,1.62l1.088,1.1h10.82l.788-.879a7.991,7.991,0,0,1,2.627-2.009,8.458,8.458,0,0,1,7.993.389,9.7,9.7,0,0,1,2.9,2.988,3.134,3.134,0,0,1,.213,2.674,3.349,3.349,0,0,1-1.338,1.419c-.2.063-.138.163.413.565l.638.49,1.326-.678c.725-.377,1.689-.916,2.139-1.218A12.112,12.112,0,0,0,95.8-224.4c.338-.665.338-.7.188-1.632a49.386,49.386,0,0,0-1.5-6.1,19.54,19.54,0,0,0-2.139-4.294c-.876-1.168-1.639-1.695-5.929-4.118A94.147,94.147,0,0,0,77.973-245a5.526,5.526,0,0,0-1.463.766,13.454,13.454,0,0,1-3.627,1.745,4.739,4.739,0,0,0-1.188.5,10.915,10.915,0,0,0-1.226,2.75c-.513,1.381-.963,2.524-1,2.524s-.488-1.142-1-2.524a10.914,10.914,0,0,0-1.226-2.75,4.739,4.739,0,0,0-1.188-.5,13.454,13.454,0,0,1-3.627-1.745A5.528,5.528,0,0,0,60.949-245,19.422,19.422,0,0,0,58.21-243.669Z" transform="translate(0 -233.604)" fill="#e74c3c"/>
    <path id="Path_3" data-name="Path 3" d="M118.218-94.645a5.9,5.9,0,0,0-3.471,2.36c-.762,1.1-.774,1.1,2.41,1.1,2.047,0,2.759.038,2.834.151a18.013,18.013,0,0,1,.1,3.817l-.075.678h-2.722c-3.246,0-3.271.013-2.634,1a6.075,6.075,0,0,0,3.845,2.536,6.449,6.449,0,0,0,3.608-.527,6.512,6.512,0,0,0,2.6-2.486l.35-.653h13.92l.275.565a6.081,6.081,0,0,0,3.72,2.963,5.8,5.8,0,0,0,6.392-2.411c.624-.967.6-.979-2.6-1.017l-2.7-.038-.1-.377a17.269,17.269,0,0,1,0-3.767l.1-.377,2.7-.038c3.258-.038,3.271-.038,2.509-1.13a6.163,6.163,0,0,0-2.871-2.172,6.672,6.672,0,0,0-3.683-.063,6.086,6.086,0,0,0-3.421,2.863l-.3.6h-13.97l-.4-.766A5.966,5.966,0,0,0,118.218-94.645Z" transform="translate(-62.545 -364.951)" fill="#e74c3c"/>
  </g>
</svg>
